# xmcd
#
# Track frame offsets:
#	180
#	15414
#	31750
#	45683
#	60135
#	69621
#	83213
#	98052
#	109453
#	125309
#	140451
#	155627
#	168371
#	178790
#	196415
#	207539
#
# Disc length: 2969 seconds
#
# Revision: 1
# Processed by: cddbd v1.5.1PL0 Copyright (c) Steve Scherf et al.
# Submitted via: audiograbber 1.83.01
#
DISCID=d70b9710
DTITLE=Serie 32 - Tom Jones and Engelbert Humperdinck - 32 Grandes Exitos de Tom 
DTITLE=Jones and Engelbert Humperding CD 2
DYEAR=1900
DGENRE=Ballad
TTITLE0=Tom Jones - Delilah
TTITLE1=Engelbert Humperdinck - Can't take my eyes off You
TTITLE2=Tom Jones - Green Green Grass of Home
TTITLE3=Engelbert Humperdinck - The way it used to be
TTITLE4=Tom Jones - What's new Pussicat
TTITLE5=Engelbert Humperdinck - There's a kind of hush
TTITLE6=Tom Jones - Daugther of Darkness
TTITLE7=Engelbert Humperdinck - The shadow of your smile
TTITLE8=Tom Jones - Detroit City
TTITLE9=Engelbert Humperdinck - Winter World of Love
TTITLE10=Tom Jones - I'm coming Home
TTITLE11=Engelbert Humperdinck - Gentle on my mind
TTITLE12=Tom Jones - Till
TTITLE13=Engelbert Humperdinck - I wish you love
TTITLE14=Tom Jones - Get ready
TTITLE15=Engelbert Humperdinck - This is my Song
EXTD=
EXTT0=
EXTT1=
EXTT2=
EXTT3=
EXTT4=
EXTT5=
EXTT6=
EXTT7=
EXTT8=
EXTT9=
EXTT10=
EXTT11=
EXTT12=
EXTT13=
EXTT14=
EXTT15=
PLAYORDER=
